HIERARCHY
ROOT Hips
{
     OFFSET 19.44660 94.11710 -16.84400
     CHANNELS 6 Xposition Yposition Zposition Zrotation Xrotation Yrotation
     JOINT Spine
     {
          OFFSET 0.00000 11.89050 -0.00000
          CHANNELS 3 Zrotation Xrotation Yrotation
          JOINT Spine1
          {
               OFFSET 0.00000 25.65740 0.12766
               CHANNELS 3 Zrotation Xrotation Yrotation
               JOINT HEad
               {
                    OFFSET -0.00000 8.73416 0.01134
                    CHANNELS 3 Zrotation Xrotation Yrotation
                    End Site
                    {
                         OFFSET -0.29000 12.77420 2.51395
                    }
               }
               JOINT LeftShoulder1
               {
                    OFFSET 8.99000 -0.36225 -0.22000
                    CHANNELS 3 Zrotation Xrotation Yrotation
                    JOINT LeftArm
                    {
                         OFFSET 10.28270 -0.00338 0.32212
                         CHANNELS 3 Zrotation Xrotation Yrotation
                         JOINT LeftForeArm
                         {
                              OFFSET 32.76690 0.09914 -1.42434
                              CHANNELS 3 Zrotation Xrotation Yrotation
                              JOINT LeftHand
                              {
                                   OFFSET 27.56430 0.08536 1.02216
                                   CHANNELS 3 Zrotation Xrotation Yrotation
                                   End Site
                                   {
                                        OFFSET 16.74430 -0.60000 1.50291
                                   }
                              }
                         }
                    }
               }
               JOINT RightShoulder
               {
                    OFFSET -8.99000 -0.36225 -0.22000
                    CHANNELS 3 Zrotation Xrotation Yrotation
                    JOINT RightArm
                    {
                         OFFSET -10.28270 -0.00338 0.32212
                         CHANNELS 3 Zrotation Xrotation Yrotation
                         JOINT RightForeArm
                         {
                              OFFSET -32.89710 0.09914 -1.42434
                              CHANNELS 3 Zrotation Xrotation Yrotation
                              JOINT RightHand
                              {
                                   OFFSET -27.49210 0.08536 1.02216
                                   CHANNELS 3 Zrotation Xrotation Yrotation
                                   End Site
                                   {
                                        OFFSET -16.63120 -0.60000 1.50291
                                   }
                              }
                         }
                    }
               }
          }
     }
     JOINT LeftUpLeg
     {
          OFFSET 8.94580 -8.66707 0.10165
          CHANNELS 3 Zrotation Xrotation Yrotation
          JOINT LeftLeg
          {
               OFFSET -0.00000 -44.42270 1.37270
               CHANNELS 3 Zrotation Xrotation Yrotation
               JOINT LeftFoot
               {
                    OFFSET -0.25355 -42.09240 -1.46059
                    CHANNELS 3 Zrotation Xrotation Yrotation
                    JOINT LeftToes
                    {
                         OFFSET -0.04000 -4.41509 8.49910
                         CHANNELS 3 Zrotation Xrotation Yrotation
                         End Site
                         {
                              OFFSET 0.08000 -0.04745 9.77979
                         }
                    }
               }
          }
     }
     JOINT RightUpLeg
     {
          OFFSET -8.94580 -8.66707 0.10165
          CHANNELS 3 Zrotation Xrotation Yrotation
          JOINT RightLeg
          {
               OFFSET 0.00000 -44.42270 1.37270
               CHANNELS 3 Zrotation Xrotation Yrotation
               JOINT RightFoot
               {
                    OFFSET 0.25355 -42.09240 -1.46059
                    CHANNELS 3 Zrotation Xrotation Yrotation
                    JOINT RightToes
                    {
                         OFFSET 0.04000 -4.41509 8.49910
                         CHANNELS 3 Zrotation Xrotation Yrotation
                         End Site
                         {
                              OFFSET -0.08000 -0.13745 9.77979
                         }
                    }
               }
          }
     }
}
MOTION
Frames: 12
Frame Time: 0.01667
39.30820 95.49100 27.93040 -28.71180 -47.22750 -30.01350 7.63656 20.55380 -9.46184 11.69740 32.09580 -30.64690 -3.59419 19.26900 -3.30153 -0.00000 0.00000 -0.00000 -8.10497 45.31120 -95.31600 -77.82590 -37.97720 -105.21800 -28.98610 8.93785 7.96895 44.83060 -2.89890 -8.33167 31.25030 -17.99000 12.26080 30.58160 20.92920 63.90110 20.07880 12.84690 11.93470 14.10740 38.38180 -22.81810 -28.98090 6.83486 70.26180 -2.58324 9.14111 0.30691 5.75260 -20.31240 -70.19770 -23.80270 -57.99690 -43.90550 49.32470 66.16020 -26.05970 -17.08430 44.31170 8.11284 -2.31497 -1.30977 18.89260 
39.53520 95.90000 27.67210 -28.14850 -45.88790 -28.48170 8.32067 19.71770 -9.76942 11.52120 31.29810 -29.39010 -3.06448 18.44310 -3.22605 -0.00000 0.00000 -0.00000 -9.81041 44.24690 -93.58450 -77.55280 -38.04840 -105.23100 -28.62670 8.96836 7.89799 44.99340 -2.54224 -7.54400 32.79910 -17.52140 16.08790 29.81650 21.48930 64.45440 19.67990 12.82600 12.13840 15.51420 37.66200 -24.71860 -29.12200 4.14860 70.23500 -1.69544 8.44438 0.17117 6.24551 -19.14520 -69.48680 -24.17090 -54.09740 -41.63020 52.54840 65.28880 -29.69430 -17.31830 45.11720 8.36337 -2.47231 -0.23021 18.20340 
39.67050 96.29690 27.42730 -27.52760 -44.48740 -26.85160 8.85773 18.77700 -9.98778 11.30170 30.48560 -27.97760 -2.54846 17.63940 -3.18529 -0.00000 0.00000 -0.00000 -12.42250 42.90900 -91.05650 -77.09450 -37.34710 -104.62000 -28.45240 8.96365 7.93866 44.74460 -2.21652 -6.87513 34.60870 -17.00640 20.06710 28.83950 22.06700 65.07870 19.22310 12.79800 12.35800 16.92820 36.87260 -26.53970 -29.18670 1.46495 69.86700 -1.02956 7.72051 0.07580 6.82475 -17.71570 -68.72490 -23.81610 -49.73880 -37.86190 54.99540 63.70440 -32.72870 -17.69220 45.50390 8.61142 -2.65170 1.62023 16.66830 
39.69400 96.64330 27.19200 -26.74340 -43.09770 -25.16510 9.16698 17.79170 -10.06460 10.94570 29.68680 -26.41660 -2.00139 16.87600 -3.24172 -0.00000 0.00000 -0.00000 -15.65850 41.17040 -88.01280 -76.39240 -36.00230 -103.49800 -28.30910 8.94658 8.02403 44.06930 -1.94329 -6.35658 36.64270 -16.41000 24.15340 27.72210 22.64390 65.79660 18.82970 12.78060 12.59420 18.08670 36.03400 -28.01850 -29.12180 -1.04734 69.16090 -0.75021 7.00552 0.03807 7.50766 -15.95350 -67.90560 -23.02060 -45.01510 -33.00700 56.49220 61.38020 -35.00060 -18.39350 45.17690 8.88951 -2.75332 3.78203 14.63640 
39.59250 96.91900 26.95360 -25.68850 -41.76840 -23.39050 9.21559 16.80340 -9.98592 10.37900 28.90250 -24.72820 -1.36244 16.15410 -3.45383 -0.00000 0.00000 -0.00000 -19.18950 38.94120 -84.79470 -75.34830 -34.19410 -101.94500 -27.98410 8.96869 7.98050 42.99420 -1.71377 -5.95703 38.84380 -15.80640 28.23470 26.68830 23.14830 66.59200 18.56530 12.77680 12.80480 18.42760 34.60880 -28.55730 -28.85740 -1.96956 68.25500 -1.55266 6.09288 0.13368 8.30121 -13.81780 -67.10000 -22.14690 -40.02470 -27.61520 57.21350 58.50830 -36.80200 -19.69870 43.67690 9.22154 -2.75341 5.65636 12.74340 
39.36410 97.07120 26.70600 -24.40740 -40.47500 -21.49200 9.14594 15.86780 -9.83102 9.61164 28.14550 -22.94170 -0.55994 15.45560 -3.84502 -0.00000 0.00000 -0.00000 -22.74630 36.18320 -81.68910 -73.85410 -32.07810 -100.01200 -27.28770 9.08295 7.61227 41.57900 -1.51127 -5.62914 41.16490 -15.29440 32.18630 25.90850 23.50640 67.47690 18.43320 12.77740 12.92690 18.24820 32.88840 -28.35080 -28.42110 -2.01207 67.20950 -2.79579 5.10732 0.26459 9.10924 -11.57680 -66.47530 -21.42460 -34.89000 -22.18070 57.53310 55.35330 -38.83330 -21.71430 40.61950 9.51075 -2.64606 6.47789 11.48130 
39.01750 97.11360 26.42910 -22.87730 -39.20130 -19.46930 8.86106 14.96300 -9.55945 8.62476 27.36390 -21.07940 0.47136 14.77440 -4.39380 -0.00000 0.00000 -0.00000 -26.19320 32.89730 -78.84690 -71.83750 -29.74980 -97.77640 -26.12270 9.29746 6.85151 39.91750 -1.32582 -5.33910 43.55970 -14.93300 35.91870 25.37380 23.69920 68.49510 18.39460 12.77640 12.95560 17.85110 31.16270 -27.68300 -27.99400 -2.05411 66.16700 -3.48966 4.22431 0.32039 9.69815 -9.95556 -66.24990 -21.00860 -29.67170 -16.98070 57.73590 52.07950 -41.60890 -24.23150 35.93500 9.52582 -2.37955 5.78912 10.73220 
38.57630 97.04440 26.09320 -21.15960 -37.92080 -17.36200 8.35267 14.09250 -9.18637 7.44070 26.53670 -19.19780 1.72531 14.11560 -5.05140 -0.00000 0.00000 -0.00000 -29.49460 29.09630 -76.32700 -69.28710 -27.26560 -95.34910 -24.49990 9.58009 5.74102 38.09100 -1.14641 -5.05128 46.01330 -14.75780 39.40050 24.95040 23.79060 69.68410 18.36880 12.76830 12.93120 17.34950 29.32680 -26.69530 -27.74440 -2.08774 65.28940 -3.23632 3.51793 0.27859 9.86118 -9.59460 -66.46040 -20.93070 -24.47220 -12.13900 57.99780 48.83590 -45.23130 -26.62260 29.96660 8.98126 -1.91843 4.07460 9.76284 
38.07460 96.90240 25.66150 -19.34800 -36.62960 -15.25120 7.63251 13.27230 -8.73286 6.15245 25.69760 -17.37320 3.09324 13.46170 -5.76023 -0.00000 0.00000 -0.00000 -32.61720 24.82030 -74.20440 -66.26380 -24.70360 -92.87380 -22.51380 9.89600 4.30864 36.11320 -0.95340 -4.70878 48.57760 -14.79330 42.66440 24.50040 23.88030 71.04910 18.24230 12.73990 12.87640 16.81560 27.37190 -25.48670 -27.69540 -2.11397 64.54080 -2.26997 3.09450 0.17863 9.64415 -10.28840 -66.83470 -21.10130 -19.38140 -7.72431 58.25820 45.82810 -49.21360 -28.28400 23.46010 7.85091 -1.38770 2.66288 7.94550 
37.54120 96.76030 25.10460 -17.52260 -35.32270 -13.23340 6.70322 12.51790 -8.20203 4.84964 24.88540 -15.64640 4.42952 12.77570 -6.48172 -0.00000 0.00000 -0.00000 -35.49300 20.18900 -72.60430 -62.88400 -22.20390 -90.50970 -20.27030 10.22240 2.51970 33.97370 -0.72900 -4.24884 51.32980 -15.05730 45.79340 23.95220 24.04230 72.57520 17.94760 12.67680 12.76390 16.25010 25.35920 -24.03620 -27.73240 -2.13950 63.77400 -1.23388 3.06076 0.08132 9.31008 -11.23990 -67.11370 -21.37760 -14.46790 -3.82668 58.29110 43.26520 -52.87080 -29.05800 17.28920 6.43234 -0.97119 2.61215 5.50940 
36.99230 96.67530 24.41580 -15.74610 -33.96840 -11.37570 5.62310 11.84450 -7.60274 3.60091 24.12860 -14.00730 5.61705 12.04340 -7.22113 -0.00000 0.00000 -0.00000 -38.06870 15.43200 -71.65330 -59.24570 -19.93480 -88.38220 -17.78160 10.53290 0.33839 31.71080 -0.48088 -3.66419 54.29720 -15.54530 48.90660 23.30680 24.29680 74.23270 17.52770 12.58140 12.56330 15.63540 23.33520 -22.25400 -27.71410 -2.16988 62.88400 -0.52042 3.48656 0.01400 9.05374 -11.95480 -67.31780 -21.65410 -9.77874 -0.52453 57.91820 41.21260 -55.79500 -29.22440 12.07620 5.08602 -0.71241 3.75239 3.26592 
36.43920 96.64120 23.61760 -14.10570 -32.51340 -9.69836 4.57350 11.26480 -6.98519 2.43334 23.42610 -12.42420 6.57892 11.30080 -7.99351 -0.00000 0.00000 -0.00000 -40.36760 10.83040 -71.38990 -55.43370 -17.99400 -86.55000 -14.97510 10.77210 -2.14302 29.45150 -0.23877 -3.01418 57.38250 -16.20740 52.11650 22.65060 24.61010 75.94690 17.06900 12.47290 12.30570 15.00840 21.29110 -20.11260 -27.54760 -2.20735 61.84190 -0.08844 4.39289 -0.03271 8.86534 -12.50670 -67.59740 -21.87970 -5.34374 2.15945 57.15230 39.56820 -57.94620 -29.17480 8.01691 4.00298 -0.56728 5.05547 1.78489 
